HIERARCHY
ROOT joint_0
{
	OFFSET 0.000000 0.000000 0.000000
	CHANNELS 6 Xposition Yposition Zposition Zrotation Yrotation Xrotation 
	JOINT joint_1
	{
		OFFSET 0.000000 0.000000 0.000000
		CHANNELS 3 Zrotation Yrotation Xrotation
		JOINT joint_2
		{
			OFFSET 3.811170 -8.520760 0.839290
			CHANNELS 3 Zrotation Yrotation Xrotation
			JOINT joint_3
			{
				OFFSET 2.562200 -7.039590 0.000000
				CHANNELS 3 Zrotation Yrotation Xrotation
				JOINT joint_4
				{
					OFFSET 0.157640 -0.433110 2.322550
					CHANNELS 3 Zrotation Yrotation Xrotation
					End Site
					{
						OFFSET 0.000000 0.000000 0.000000
					}
				}
			}
		}
	}
	JOINT joint_5
	{
		OFFSET 0.000000 0.000000 0.000000
		CHANNELS 3 Zrotation Yrotation Xrotation
		JOINT joint_6
		{
			OFFSET -3.848050 -8.780180 0.839290
			CHANNELS 3 Zrotation Yrotation Xrotation
			JOINT joint_7
			{
				OFFSET -2.568260 -7.056230 0.000000
				CHANNELS 3 Zrotation Yrotation Xrotation
				JOINT joint_8
				{
					OFFSET -0.164730 -0.452590 2.363150
					CHANNELS 3 Zrotation Yrotation Xrotation
					End Site
					{
						OFFSET 0.000000 0.000000 0.000000
					}
				}
			}
		}
	}
	JOINT joint_9
	{
		OFFSET 0.028270 2.035590 -0.193380
		CHANNELS 3 Zrotation Yrotation Xrotation
		JOINT joint_10
		{
			OFFSET 0.056720 2.048850 -0.042750
			CHANNELS 3 Zrotation Yrotation Xrotation
			JOINT joint_11
			{
				OFFSET -0.054170 1.746240 0.172020
				CHANNELS 3 Zrotation Yrotation Xrotation
				JOINT joint_12
				{
					OFFSET 0.104070 1.761360 -0.123970
					CHANNELS 3 Zrotation Yrotation Xrotation
					End Site
					{
						OFFSET 0.000000 0.000000 0.000000
					}
				}
			}
			JOINT joint_13
			{
				OFFSET 3.362410 1.200890 -0.311210
				CHANNELS 3 Zrotation Yrotation Xrotation
				JOINT joint_14
				{
					OFFSET 4.983000 -0.000000 -0.000000
					CHANNELS 3 Zrotation Yrotation Xrotation
					JOINT joint_15
					{
						OFFSET 3.483560 -0.000000 -0.000000
						CHANNELS 3 Zrotation Yrotation Xrotation
						JOINT joint_16
						{
							OFFSET 0.715260 -0.000000 -0.000000
							CHANNELS 3 Zrotation Yrotation Xrotation
							End Site
							{
								OFFSET 0.000000 0.000000 0.000000
							}
						}
					}
				}
			}
			JOINT joint_17
			{
				OFFSET -3.136600 1.374050 -0.404650
				CHANNELS 3 Zrotation Yrotation Xrotation
				JOINT joint_18
				{
					OFFSET -5.241900 -0.000000 -0.000000
					CHANNELS 3 Zrotation Yrotation Xrotation
					JOINT joint_19
					{
						OFFSET -3.444170 -0.000000 -0.000000
						CHANNELS 3 Zrotation Yrotation Xrotation
						JOINT joint_20
						{
							OFFSET -0.622530 -0.000000 -0.000000
							CHANNELS 3 Zrotation Yrotation Xrotation
							End Site
							{
								OFFSET 0.000000 0.000000 0.000000
							}
						}
					}
				}
			}
		}
	}
}
MOTION
Frames: 16
Frame Time: 0.031667
-2.459858 14.507683 5.742495 170.276443 -42.221558 178.379807 -45.434014 52.886668 -26.892974 5.684035 -23.157170 28.170764 11.144625 -45.895825 -1.351956 0.979960 7.465414 15.950308 46.926323 44.590333 90.666284 -27.765487 16.282987 77.009531 -7.762581 -32.523773 12.385506 -1.209609 -2.185166 14.619099 -71.921415 4.029870 85.123972 0.534048 1.268370 -0.558973 31.243432 17.499002 -37.924210 -4.487865 -3.573452 30.530598 66.661175 -37.551360 160.522319 23.316076 10.311745 -51.105897 4.053363 -5.689445 -30.016138 -25.143085 0.104987 0.198350 -49.583655 8.209623 -22.897673 -100.338842 -21.309775 81.471130 33.697292 46.376755 -25.907685 27.062239 -0.418445 -0.321000 
-2.618448 14.527208 5.658350 170.375656 -37.557163 178.634201 -34.824018 47.459606 9.981838 -41.992451 -37.912650 28.606717 1.517830 -60.345351 2.604363 2.514913 13.872558 21.085412 -103.130484 51.453012 -96.346297 -47.189232 27.825916 53.520338 -7.438175 -27.750303 9.557062 -0.559837 4.343740 -10.193232 -27.655197 48.914109 101.762036 0.075408 -6.885081 -0.112765 32.247770 -18.610228 33.680082 -1.391093 -4.834614 34.584192 -21.583183 -31.192697 -173.109324 13.046261 0.036423 -25.938817 9.629487 1.114452 -36.862193 -25.371349 0.149236 0.250743 -34.366138 -4.923848 -4.122265 8.820671 -55.926425 -20.477205 -46.344834 42.007487 -85.851761 27.377255 -0.420914 -0.295184 
-2.764054 14.545231 5.564871 170.413406 -32.941769 178.892181 -2.657979 35.394598 -6.072657 -21.768559 -41.283804 -9.304934 39.636327 -39.206281 -32.267614 4.162398 18.811917 25.238105 -4.985690 45.192800 27.934591 -30.995677 -12.726045 51.073481 0.048550 0.117350 -0.044795 -0.952658 5.601421 -10.235877 10.033397 57.191132 143.049633 -1.384518 -1.403975 -7.814774 27.923172 -17.262704 -12.046556 -0.508843 -8.705538 44.101162 -121.312363 -51.392291 142.453185 30.404247 0.387470 -51.043371 -0.382901 -0.101744 -1.700503 -25.547905 0.169212 0.274689 -19.642202 -3.286028 -8.746093 -95.094274 -39.510763 54.350211 74.302797 16.833754 -20.123110 27.554410 -0.415818 -0.267310 
-2.906213 14.562422 5.467940 170.488632 -28.315804 179.197021 44.954389 55.421931 22.762520 2.253722 -10.412574 33.532844 36.646302 -48.535227 -10.624473 1.621916 8.713906 21.743564 4.788362 57.112545 37.814824 -33.981358 27.121515 63.056867 -7.041567 -35.638148 10.971601 -1.360121 -3.180509 17.381111 -31.538846 33.688422 121.870324 0.084766 3.816614 4.748811 67.920955 9.809018 36.566060 -8.031018 -6.732192 43.589231 -113.437482 -63.486164 -120.738725 10.745478 16.841618 -82.321336 9.476570 -21.030567 -22.807785 -25.804675 0.108652 0.238885 -49.616870 -2.201949 -7.286403 -107.668071 -44.985772 65.286265 69.006334 34.864983 7.258342 27.805735 -0.420790 -0.286095 
-3.037075 14.576888 5.359700 170.548111 -23.823706 179.467407 7.583094 71.677973 -29.105863 3.721337 9.047866 21.978338 17.132781 -40.050282 -29.496770 1.134688 7.467945 18.228876 25.332399 78.406134 47.946991 -56.098091 20.369800 52.688069 -17.684265 -27.200820 14.427291 -1.844975 7.679446 -15.100694 -29.657425 22.148439 117.866612 -8.088189 -7.575114 -25.771654 8.491619 17.644486 -34.266787 -15.179141 -2.724695 39.017135 -28.693913 -43.073289 161.435027 30.724501 8.644368 -73.926409 0.645319 -6.256965 11.713758 -25.651411 0.088870 0.213570 -47.774685 -0.644838 -13.855174 3.487198 -58.944261 -58.496634 24.413947 -61.643865 -47.390713 27.660986 -0.427713 -0.317621 
-3.164959 14.590025 5.247998 170.648514 -19.354546 179.764572 -30.809750 63.750694 -35.079681 -19.979307 -31.857504 5.623776 21.671991 -40.830175 -20.149760 1.067325 7.702173 17.431959 25.999205 -15.607046 20.454590 -56.542845 5.658109 48.295926 1.486209 -27.650576 9.315450 -1.862114 7.921636 -18.177969 8.886177 56.548763 139.858628 -11.465271 -1.043893 -28.743776 30.783926 33.848003 -17.921453 -15.972127 -1.435063 28.213923 39.561252 -55.285684 141.236182 12.568129 30.398010 -71.304596 20.332319 2.146809 17.598475 -25.763991 0.070840 0.189243 -72.170918 -28.008024 -3.387640 95.539816 -76.691320 -168.734012 54.226063 -27.879884 -55.368468 27.771811 -0.431444 -0.320910 
-3.282469 14.598531 5.124234 170.778320 -15.053505 -179.976471 -20.193349 35.614247 -33.615237 -29.323506 -20.563636 34.668999 -3.598410 -61.434004 57.590391 1.162609 -6.530673 -22.437713 2.002776 32.239653 -6.774584 -26.662320 2.787751 61.251317 -5.260924 -24.567562 11.015283 -1.234885 6.323650 -15.013805 -60.400650 71.847362 91.813091 12.926715 4.069375 -31.614894 12.870113 59.153610 -63.125452 -6.954013 -2.711749 17.971738 89.392424 -45.907422 170.257397 13.101004 12.652057 -80.340184 -0.632778 2.338882 0.462293 -25.877808 0.054982 0.185327 -75.849980 8.723485 -9.909140 79.947884 -74.639595 -127.253799 -87.258637 73.702096 -79.014054 27.913134 -0.436285 -0.346976 
-3.397201 14.605514 4.997565 170.957077 -10.781870 -179.693497 -40.514340 50.697077 -105.084289 -11.782480 -16.938187 26.785343 -4.687982 -17.158933 15.007318 0.949078 7.140642 16.806583 42.988440 40.384138 81.690767 -39.781412 -1.183939 67.169446 -6.958454 -22.905388 9.735284 -3.133931 8.976606 -10.510275 54.620700 62.261120 160.905446 10.186194 0.854946 -46.117672 34.387203 23.957430 -32.646030 -6.126315 -8.072062 21.292812 52.122008 -64.272123 170.889407 21.739141 26.949208 -78.156074 2.846997 -42.354446 10.563051 -26.097762 0.054941 0.196299 -68.932308 -21.029266 -7.424974 -94.171616 -22.311639 20.319505 -49.698880 39.660705 -64.249296 28.200108 -0.450345 -0.371564 
-3.501622 14.606843 4.860115 171.189468 -6.673385 -179.448105 6.753023 60.527935 -0.356489 -13.761114 2.723047 19.020093 16.743186 -81.241401 5.982902 0.579625 -4.165408 -18.523386 -8.412306 40.379119 -5.805132 -24.264005 10.558078 42.793289 -47.700773 -56.235528 33.861253 -1.045293 0.802498 8.068181 -168.246808 59.177008 -9.812837 16.562153 19.646127 -36.027156 25.561284 2.242340 -51.889453 -10.078969 -22.982448 47.226449 -17.748037 -60.881229 -130.405387 -1.051219 35.455300 -102.827545 19.688407 13.325521 -38.130101 -26.714362 0.120659 0.264228 -38.567163 -2.608870 -6.724429 -104.746000 -43.871655 78.403150 -80.131199 -12.258012 -62.651203 28.933189 -0.446079 -0.325025 
-3.603539 14.607029 4.720396 171.478287 -2.584581 -179.173004 73.076990 73.543051 63.453346 -36.542794 -0.134386 30.571367 7.332231 -39.941632 23.222483 1.284616 12.650702 14.155259 55.844079 47.606633 131.212565 -44.112991 3.270366 51.293305 -15.084313 -55.747191 2.463231 -0.774689 -0.953489 9.348128 41.508143 82.857378 179.740561 1.022685 -0.895734 -0.365655 32.698911 -50.191256 -17.149089 -10.875836 -31.858961 58.208075 -102.568124 -11.249320 -140.648957 -13.060229 55.460887 -109.656102 7.563468 -14.307130 -32.597237 -26.904505 0.134562 0.293239 -31.070262 -11.969419 -10.484329 23.415352 -78.260066 -72.894744 -84.149113 49.501141 -101.935440 29.217585 -0.459030 -0.332741 
-3.695530 14.602684 4.571686 171.832626 1.375654 -178.939560 33.999673 67.116589 0.180851 13.454556 -1.231651 47.709535 -61.441400 -39.278935 60.311078 0.970959 -5.382838 -20.155650 29.192121 8.523811 34.354238 -28.329869 -1.255819 54.942520 -13.576728 -59.847381 -0.115694 -0.974033 1.869921 7.427640 -175.812574 -25.813768 123.150798 -5.646497 -14.719534 -7.472087 53.481662 -12.137623 -12.503557 -29.460220 -43.979405 86.019026 20.861197 -61.038334 -113.985537 -23.760511 3.580863 -105.716978 -2.416146 -3.346062 -14.838717 -27.468791 0.192301 0.320260 -34.763847 -11.252866 8.866722 102.456645 -53.166843 -153.485126 -53.872779 36.646462 -94.075613 29.878744 -0.461784 -0.311864 
-3.785338 14.597994 4.421126 172.246323 5.330235 -178.664795 -41.631792 75.840191 -50.537382 1.308707 -9.102630 40.610735 -39.900453 -52.843706 42.006254 1.082849 7.158807 17.445939 12.151919 44.375280 53.750877 -43.867590 16.511679 46.967018 -30.641611 -37.464294 19.739478 -1.173718 -4.742961 17.627140 -103.089521 -57.636651 -143.900518 4.622410 -6.874305 -0.459218 22.256346 -10.577789 10.190550 -45.407770 -47.893037 100.611988 -108.444880 3.680087 -97.372110 -8.007384 27.281013 -79.450226 1.025733 -4.761621 -22.584497 -27.640263 0.143458 0.307886 -41.714711 1.415822 -7.101391 -122.324378 -59.835159 74.863700 45.792970 34.618183 -10.234548 29.993919 -0.467779 -0.307394 
-3.865871 14.591835 4.262709 172.722534 9.200757 -178.432083 4.480512 28.999955 -10.455356 -5.204649 -8.371602 2.575135 25.817140 -56.708976 -68.545123 1.467182 9.057733 17.423672 -60.468180 18.876829 7.238497 -21.478675 14.716375 52.788855 -14.730510 -41.427783 4.057499 -1.138926 6.342120 -12.633564 -30.595640 -14.719494 134.087150 7.919120 -22.279738 -4.514090 19.799359 -17.632690 9.208130 -24.471734 -43.894526 88.502697 -55.635951 -9.424298 -64.627389 -27.299096 19.751019 -85.744016 12.491784 -0.123565 -9.876946 -28.140608 0.209491 0.354255 -1.161797 -0.123999 -0.233229 143.649684 -76.797396 -174.037844 106.729984 58.169103 78.469699 30.508720 -0.454153 -0.256401 
-3.944309 14.586116 4.102765 173.253860 13.079476 -178.145386 2.605111 28.519700 -13.621679 -12.980921 -17.808867 3.647744 -6.102469 -61.465519 -7.805179 1.018316 6.570098 16.927234 46.035784 34.242769 25.544385 -38.861705 -1.837738 53.980985 -34.045460 -56.032696 41.765725 -0.682400 -4.011216 13.948298 -33.409204 32.129658 121.297881 2.127493 13.655112 4.891600 47.372674 2.382285 -2.026259 -4.526910 -33.985530 60.802662 -57.430681 -33.149465 -82.524457 44.265577 36.782814 -47.125953 9.253174 11.576366 5.224913 -28.326884 0.248962 0.373174 -13.796411 -1.645070 -8.421654 106.334138 -59.555190 -136.957411 118.437173 33.009679 64.066095 30.708160 -0.429885 -0.197705 
-4.013194 14.582400 3.935857 173.818298 16.912605 -177.895737 6.222944 21.967923 -7.892839 -60.519398 -19.049287 30.214688 72.645805 -72.070434 -53.262112 1.202043 -6.313876 -20.224215 -30.815603 27.565669 39.925368 -40.368667 -5.613805 49.670917 -18.649224 -48.656494 33.789863 -1.394716 7.594710 4.330866 42.963401 15.820869 147.333190 13.034064 3.315182 -29.638491 26.922447 -49.780259 -11.554729 -2.788651 -23.227918 45.514888 -45.544467 25.484518 -157.479620 -7.891567 13.461801 -111.405776 -7.480997 -10.811883 -21.136902 -28.181861 0.233607 0.378591 -11.556566 -0.045461 -1.827251 174.498982 -62.092992 157.120661 94.454876 7.344093 47.039068 30.545130 -0.417362 -0.181708 
-4.079897 14.579639 3.767890 174.430923 20.762396 -177.582199 -13.584445 50.985779 -19.554832 0.156642 -4.620568 22.021467 -30.697469 -80.078154 15.324210 1.530598 -7.207770 -23.247657 17.738796 66.230940 24.978333 -43.718238 19.973358 67.185794 -33.839547 -64.728911 26.285551 -0.290891 2.908439 -6.410114 -86.025868 56.714324 63.081351 -1.391350 -0.877176 -5.570767 36.599903 -49.046844 23.829256 -4.220637 -15.457470 36.642298 -30.136789 -41.022957 -147.030602 3.629221 26.561956 -72.233538 -9.038773 -8.924079 39.494810 -27.740091 0.180665 0.341850 -31.174008 -3.787132 -15.981850 -84.250009 -18.450950 27.220187 -49.385605 65.245168 -29.671058 30.009307 -0.425107 -0.210754 
